<?xml version="1.0" standalone="no"?>
<!DOCTYPE svg PUBLIC "-//W3C//DTD SVG 20010904//EN"
 "http://www.w3.org/TR/2001/REC-SVG-20010904/DTD/svg10.dtd">
<svg version="1.0" xmlns="http://www.w3.org/2000/svg"
 width="390.000000pt" height="390.000000pt" viewBox="0 0 390.000000 390.000000"
 preserveAspectRatio="xMidYMid meet">
<metadata>
Created by potrace 1.16, written by Peter Selinger 2001-2019
</metadata>
<g transform="translate(0.000000,390.000000) scale(0.100000,-0.100000)"
fill="#000000" stroke="none">
<path d="M2886 3808 c-57 -59 -140 -212 -152 -280 -6 -34 -3 -39 35 -65 22
-15 40 -32 41 -36 0 -5 -48 -126 -106 -270 -257 -634 -359 -888 -394 -974
l-36 -92 -413 -315 c-226 -173 -427 -325 -446 -336 -33 -21 -75 -65 -75 -80 0
-4 69 -70 153 -148 l154 -141 -5 -58 c-3 -40 -10 -63 -22 -73 -11 -8 -28 -38
-38 -65 -28 -70 -62 -127 -76 -122 -12 4 -35 168 -28 203 2 12 -7 34 -23 53
-15 17 -25 34 -23 37 3 2 11 -2 18 -11 17 -20 51 -19 92 3 18 9 35 18 36 19 2
1 1 15 -3 31 -4 21 -36 56 -105 118 -88 79 -102 89 -132 86 -29 -3 -199 -49
-203 -55 -1 -1 -14 -38 -29 -82 -40 -115 -67 -262 -59 -324 7 -62 2 -63 -77
-19 l-57 31 20 34 20 34 -21 29 -22 29 46 103 c25 57 54 121 64 143 10 22 22
63 26 90 3 28 20 96 35 153 16 56 29 107 29 113 0 6 20 33 44 60 53 59 61 97
32 153 -27 53 -40 66 -64 66 -22 0 -75 -39 -54 -40 7 0 10 -4 7 -10 -3 -5 -1
-10 5 -10 8 0 8 -6 0 -20 -14 -26 -30 -26 -30 1 0 29 -18 59 -35 59 -11 0 -14
-10 -10 -45 3 -25 7 -65 10 -90 3 -32 1 -45 -8 -45 -6 0 -48 -91 -92 -203 -75
-191 -83 -205 -135 -258 -53 -54 -59 -57 -130 -69 -92 -15 -194 -67 -164 -83
29 -15 30 -17 14 -27 -13 -8 -13 -10 -1 -10 10 0 7 -8 -9 -25 -13 -14 -18 -25
-12 -25 6 0 -10 -21 -36 -47 -40 -41 -44 -48 -28 -51 18 -4 18 -5 -5 -18 -20
-11 -21 -13 -5 -14 13 0 16 -4 9 -12 -6 -7 -13 -20 -16 -29 -4 -13 -1 -16 15
-11 18 4 20 1 16 -19 -3 -13 -9 -33 -13 -43 -6 -14 -5 -17 3 -12 7 4 21 4 33
1 16 -5 18 -9 8 -21 -22 -27 -3 -24 33 6 23 19 38 26 45 19 6 -6 14 -5 23 6
24 28 30 15 30 -64 0 -109 28 -195 85 -262 25 -29 45 -57 45 -62 0 -5 25 -35
56 -67 52 -55 63 -61 164 -95 92 -31 119 -35 181 -33 72 3 74 4 77 30 4 31 15
34 52 13 40 -23 98 -19 132 10 21 17 41 25 69 25 61 0 102 22 183 99 74 71 95
82 221 128 110 40 106 36 90 84 -15 43 -16 42 35 53 14 3 67 32 119 65 100 65
138 77 198 66 21 -4 55 -7 75 -8 32 -1 39 -6 59 -42 12 -22 40 -66 61 -97 37
-56 41 -58 121 -82 90 -27 210 -56 233 -56 12 0 15 9 12 35 -2 31 2 38 31 56
39 24 37 28 -43 73 -49 28 -62 43 -121 141 -196 324 -332 503 -525 688 -71 68
-130 129 -130 134 0 5 49 130 108 276 l108 267 559 424 558 424 45 -24 c25
-13 56 -24 69 -24 48 0 164 72 256 158 55 53 57 57 57 106 -1 105 -80 238
-234 392 -196 195 -398 307 -579 321 l-78 6 -53 -55z m157 -544 c44 -37 64
-61 58 -68 -12 -16 -589 -791 -689 -926 -104 -141 -108 -145 -87 -95 20 50
205 507 372 920 69 171 127 313 130 318 6 9 127 -74 216 -149z m243 -226 l100
-97 -175 -133 c-96 -73 -327 -249 -513 -390 -186 -142 -341 -258 -343 -258 -3
0 169 232 382 515 l387 515 30 -27 c17 -15 76 -72 132 -125z m-1234 -1240
c-92 -123 -233 -312 -312 -420 -79 -109 -146 -196 -149 -193 -2 3 15 33 38 66
l43 61 -38 -5 c-149 -23 -152 -23 -195 19 -21 21 -39 44 -39 51 0 19 36 52
153 143 l109 83 64 -64 c39 -39 67 -60 73 -54 4 6 34 45 65 88 56 76 57 78 38
95 -11 9 -25 32 -31 51 -9 29 -8 36 6 47 10 7 90 67 178 133 88 66 161 120
163 120 1 1 -73 -99 -166 -221z m78 -49 c-50 -123 -132 -334 -182 -468 -51
-134 -102 -256 -114 -270 l-22 -26 -15 36 c-16 39 -64 79 -94 79 -19 0 -71 46
-62 54 22 20 109 52 182 67 49 10 90 19 92 21 1 2 29 73 62 158 l59 155 -40
34 c-23 19 -40 38 -38 43 3 12 256 348 259 344 1 -1 -38 -103 -87 -227z m-277
-371 c-14 -15 -112 -53 -119 -45 -1 1 17 27 39 58 l42 57 27 -26 c26 -24 27
-27 11 -44z m412 -351 c41 -54 109 -152 152 -217 77 -117 79 -119 146 -149 40
-19 67 -37 67 -46 0 -20 -91 -65 -97 -48 -2 7 -42 76 -89 154 -99 166 -187
294 -301 439 l-83 105 65 -70 c37 -38 100 -114 140 -168z m-156 88 c31 -38 79
-100 105 -138 56 -78 56 -98 1 -145 -36 -33 -78 -47 -179 -63 -33 -6 -81 -19
-106 -30 -24 -11 -46 -16 -48 -11 -1 5 -8 17 -15 26 -12 17 -21 14 -120 -35
-58 -29 -109 -51 -112 -47 -3 3 6 28 20 56 14 27 25 53 25 58 0 4 7 15 16 25
8 9 17 34 19 56 3 45 40 78 86 78 37 0 45 13 100 158 32 85 46 110 65 117 13
5 24 15 24 22 1 14 26 -13 119 -127z"/>
<path d="M1506 1928 c-9 -21 -16 -42 -16 -48 0 -5 -11 -10 -25 -10 -23 0 -36
-23 -17 -32 4 -1 37 -39 73 -83 37 -44 79 -91 93 -104 l25 -24 83 63 c124 95
129 100 117 121 -14 27 -32 23 -52 -12 -9 -17 -20 -29 -25 -27 -4 2 -46 19
-94 38 -79 32 -87 38 -97 70 -6 19 -20 46 -30 60 l-20 25 -15 -37z"/>
</g>
</svg>
